<svg xmlns="http://www.w3.org/2000/svg" width="22" height="22" viewBox="0 0 22 22">
    <path d="M20.575 1.424c-1.894-1.899-4.973-1.899-6.867 0L1.118 14.012c-.1.098-.16.225-.18.36l-.932 6.91c-.028.198.042.395.178.53.117.118.282.188.446.188.028 0 .056 0 .084-.005l4.162-.562c.347-.047.591-.366.544-.713-.047-.347-.365-.59-.712-.544l-3.338.45.652-4.819 5.072 5.073c.117.117.28.187.445.187.164 0 .328-.066.445-.187L20.575 8.292C21.494 7.373 22 6.154 22 4.856c0-1.299-.506-2.518-1.425-3.432zm-6.623 1.547l2.114 2.114-11.49 11.49-2.114-2.113 11.49-11.49zM7.544 19.54L5.476 17.47l11.49-11.49 2.067 2.067-11.49 11.49zm12.37-12.396l-5.058-5.058c.642-.53 1.444-.82 2.288-.82.96 0 1.86.375 2.54 1.05.68.675 1.05 1.58 1.05 2.54 0 .85-.29 1.646-.82 2.288z"/>
</svg>
